<svg width="65" height="40" viewBox="0 0 65 40" fill="none" xmlns="http://www.w3.org/2000/svg">
<g clip-path="url(#clip0_31_2222)">
<rect x="0.410645" width="63.8298" height="40" rx="4" fill="white"/>
<path d="M44.6109 21.7538L45.2827 21.9553C45.2379 22.1456 45.1707 22.3024 45.07 22.4255C44.9692 22.5487 44.8572 22.6495 44.7117 22.7054C44.5661 22.7726 44.387 22.8062 44.1631 22.8062C43.8944 22.8062 43.6816 22.7726 43.5025 22.6943C43.3345 22.6159 43.189 22.4815 43.0658 22.28C42.9427 22.0896 42.8755 21.8321 42.8755 21.5298C42.8755 21.1268 42.9875 20.8133 43.2002 20.5893C43.4129 20.3654 43.7264 20.2646 44.1183 20.2646C44.4318 20.2646 44.6669 20.3318 44.846 20.455C45.0252 20.5781 45.1595 20.7685 45.2379 21.0372L44.5661 21.1827C44.5437 21.1044 44.5213 21.0484 44.4878 21.0148C44.443 20.9588 44.3982 20.914 44.331 20.8804C44.2638 20.8469 44.1967 20.8357 44.1295 20.8357C43.9615 20.8357 43.8272 20.9028 43.7376 21.0484C43.6704 21.1492 43.6368 21.3171 43.6368 21.5298C43.6368 21.7985 43.6816 21.9889 43.76 22.0897C43.8384 22.1904 43.9615 22.2464 44.1071 22.2464C44.2526 22.2464 44.3646 22.2016 44.4318 22.1232C44.5213 22.0225 44.5773 21.9105 44.6109 21.7538Z" fill="#225E63"/>
<path d="M45.5515 21.5298C45.5515 21.1267 45.6635 20.8132 45.8874 20.5893C46.1113 20.3654 46.4248 20.2534 46.8279 20.2534C47.2422 20.2534 47.5557 20.3654 47.7796 20.5781C48.0035 20.802 48.1155 21.1043 48.1155 21.5074C48.1155 21.7985 48.0707 22.0336 47.9699 22.2128C47.8692 22.3919 47.7348 22.5375 47.5445 22.6382C47.3653 22.739 47.1302 22.795 46.8615 22.795C46.5816 22.795 46.3576 22.7502 46.1673 22.6606C45.9882 22.5711 45.8426 22.4367 45.7195 22.2352C45.5963 22.0336 45.5515 21.8209 45.5515 21.5298ZM46.3129 21.5298C46.3129 21.7761 46.3576 21.9553 46.4472 22.0672C46.5368 22.1792 46.6599 22.2352 46.8279 22.2352C46.9958 22.2352 47.119 22.1792 47.2086 22.0784C47.2981 21.9665 47.3429 21.7761 47.3429 21.5074C47.3429 21.2723 47.2981 21.1043 47.1974 21.0036C47.1078 20.8916 46.9734 20.8468 46.8167 20.8468C46.66 20.8468 46.5368 20.9028 46.4472 21.0148C46.3576 21.1043 46.3129 21.2835 46.3129 21.5298Z" fill="#225E63"/>
<path d="M48.5073 20.2983H49.5037L49.8844 21.7986L50.2651 20.2983H51.2615V22.7615H50.6346V20.8805L50.1531 22.7615H49.5933L49.1119 20.8805V22.7615H48.4849V20.2983H48.5073Z" fill="#225E63"/>
<path d="M51.7542 20.2983H53.0193C53.2992 20.2983 53.5008 20.3655 53.6351 20.4999C53.7695 20.6342 53.8367 20.8134 53.8367 21.0597C53.8367 21.306 53.7583 21.5075 53.6127 21.6419C53.4672 21.7875 53.2321 21.8546 52.9298 21.8546H52.5155V22.7727H51.7542V20.2983ZM52.5155 21.3508H52.7058C52.8514 21.3508 52.9522 21.3284 53.0193 21.2724C53.0753 21.2164 53.1089 21.1605 53.1089 21.0821C53.1089 21.0037 53.0865 20.9365 53.0305 20.8805C52.9746 20.8246 52.885 20.8022 52.7394 20.8022H52.5267V21.3508H52.5155Z" fill="#225E63"/>
<path d="M54.2397 20.2983H55.0011V22.1569H56.1879V22.7615H54.2397V20.2983Z" fill="#225E63"/>
<path d="M56.5686 20.2983H57.33V22.7615H56.5686V20.2983Z" fill="#225E63"/>
<path d="M59.3901 22.3472H58.528L58.4049 22.7503H57.6323L58.5616 20.2871H59.3901L60.3194 22.7503H59.5245L59.3901 22.3472ZM59.2334 21.821L58.9647 20.9365L58.696 21.821H59.2334Z" fill="#225E63"/>
<path d="M60.5544 20.2983H61.2598L62.1891 21.6643V20.2983H62.9057V22.7615H62.1891L61.271 21.4068V22.7615H60.5544V20.2983Z" fill="#225E63"/>
<path d="M63.2417 20.2983H65.5593V20.9029H64.7868V22.7615H64.0254V20.9029H63.2529V20.2983H63.2417Z" fill="#225E63"/>
<path d="M35.4522 24.0491L37.6579 23.3549L36.9413 21.765C36.4151 22.4256 35.8889 23.2765 35.4522 24.0491ZM34.7021 16.7826L30.3803 7.15381L-1.2605 8.94522L7.50622 32.8606L24.3791 27.5423C23.3042 25.9972 22.9124 24.161 24.1551 23.2653C25.5435 22.2576 27.6372 23.4221 28.9696 25.0679C30.2571 22.9182 33.8736 17.9135 34.7021 16.7826Z" fill="#225E63"/>
<path d="M29.3945 14.1122C30.7157 14.1122 31.7906 13.1045 31.7906 11.8505C31.7906 10.5965 30.7157 9.58887 29.3945 9.58887C28.0734 9.58887 26.9985 10.5965 26.9985 11.8505C26.9985 13.0933 28.0734 14.1122 29.3945 14.1122ZM27.4352 15.0863H31.3539V25.3309H27.4352V15.0863Z" fill="#FEFEFE"/>
<path d="M25.4983 18.0757C25.5319 18.0869 25.5543 18.0757 25.5543 18.0421V15.4445C25.5543 15.4109 25.5319 15.3774 25.4983 15.355C25.4983 15.355 24.9833 15.0191 23.4158 14.9295C23.3374 14.8847 21.9603 14.8735 21.5908 14.9295C15.8807 15.3886 15.668 19.52 15.668 19.6991V20.7068C15.668 20.83 15.668 25.051 21.5908 25.4205C22.173 25.4652 23.3039 25.4205 23.4158 25.4205C24.7818 25.4205 25.7223 25.0062 25.7223 25.0062C25.7559 24.995 25.7782 24.9614 25.7782 24.9278V22.4982C25.7782 22.4646 25.7559 22.4534 25.7335 22.4758C25.7335 22.4758 25.308 22.8117 23.4494 23.0021C22.9232 23.058 22.6657 23.0356 22.4753 23.0021C19.833 22.5542 19.7098 20.6284 19.7098 20.6284C19.7098 20.5948 19.6986 20.5389 19.6986 20.5165V19.7775C19.6986 19.7439 19.6986 19.6879 19.7098 19.6656C19.7098 19.6656 19.889 17.5942 22.4753 17.3703H23.4494C24.5802 17.5159 25.4983 18.0757 25.4983 18.0757Z" fill="#FEFEFE"/>
<path d="M4.78516 25.2973C4.78516 25.3309 4.80755 25.3533 4.84114 25.3533H8.65908C8.69267 25.3533 8.71506 25.3309 8.71506 25.2973V22.3191C8.71506 22.2855 8.73746 22.2631 8.77105 22.2631C8.77105 22.2631 14.873 22.6997 14.873 18.6131C14.873 15.3773 11.0439 15.0303 9.78991 15.0862C9.76752 15.0862 4.84114 15.0862 4.84114 15.0862C4.80755 15.0862 4.78516 15.1086 4.78516 15.1422V25.2973ZM8.64789 19.9902V17.3143H9.58838C9.58838 17.3143 10.9431 17.3703 11.0551 18.2996C11.0775 18.3668 11.0775 18.8258 11.0551 18.8482C10.876 19.9342 9.70034 19.9902 9.70034 19.9902H8.64789Z" fill="#FEFEFE"/>
<path d="M29.5071 30.2743C29.8206 30.2743 30.0669 30.2743 30.47 30.0951C31.8583 29.3674 36.5496 17.9135 41.4984 14.3867C41.5319 14.3643 41.5655 14.3307 41.5879 14.2971C41.6215 14.2523 41.6215 14.2075 41.6215 14.2075C41.6215 14.2075 41.6215 13.9724 40.8937 13.9724C36.4936 13.8493 31.9143 23.0862 29.5071 26.7362C29.4735 26.781 29.3168 26.7362 29.3168 26.7362C29.3168 26.7362 27.7045 24.8328 26.3049 24.1051C26.2714 24.0939 26.1146 24.0379 25.9467 24.0491C25.8347 24.0491 25.1853 24.1835 24.883 24.497C24.5247 24.8776 24.5359 25.0904 24.5359 25.5494C24.5359 25.583 24.5583 25.7397 24.6031 25.8181C24.9502 26.4227 26.5065 28.5724 27.7941 29.7592C27.9844 29.9048 28.2867 30.2743 29.5071 30.2743Z" fill="#2BBC5D"/>
<path d="M42.7971 10.9268H46.4583C47.1861 10.9268 47.7683 11.0275 48.2049 11.2179C48.6528 11.4194 49.0223 11.6993 49.3022 12.0576C49.5933 12.4271 49.806 12.8525 49.9292 13.334C50.0635 13.8154 50.1307 14.3304 50.1307 14.8791C50.1307 15.73 50.0299 16.3906 49.8396 16.8608C49.6493 17.3311 49.3806 17.7229 49.0335 18.0476C48.6864 18.3611 48.3169 18.5738 47.925 18.6858C47.3876 18.8314 46.895 18.8985 46.4583 18.8985H42.7971V10.9268ZM45.2603 12.7294V17.0847H45.8649C46.3799 17.0847 46.7494 17.0288 46.9622 16.9168C47.1749 16.8048 47.354 16.6033 47.4772 16.3234C47.6003 16.0435 47.6675 15.5732 47.6675 14.935C47.6675 14.0841 47.5332 13.5131 47.2533 13.1996C46.9733 12.8861 46.5255 12.7294 45.8761 12.7294H45.2603Z" fill="#225E63"/>
<path d="M50.8137 16.2674L53.1649 16.1219C53.2209 16.5026 53.3217 16.7937 53.4784 16.9952C53.736 17.3199 54.0942 17.4766 54.5645 17.4766C54.9116 17.4766 55.1915 17.3983 55.3818 17.2303C55.5722 17.0624 55.6729 16.872 55.6729 16.6593C55.6729 16.4578 55.5834 16.2674 55.4042 16.0995C55.2251 15.9316 54.7996 15.786 54.139 15.6405C53.053 15.3941 52.2916 15.0694 51.8214 14.6664C51.3511 14.2633 51.1272 13.7483 51.1272 13.1213C51.1272 12.707 51.2504 12.3263 51.4855 11.9569C51.7206 11.5874 52.0789 11.3075 52.5603 11.0947C53.0418 10.882 53.6912 10.7812 54.5197 10.7812C55.5386 10.7812 56.3223 10.9716 56.8485 11.3523C57.386 11.7329 57.6995 12.3375 57.8002 13.1661L55.4714 13.3004C55.4042 12.9421 55.2811 12.6846 55.0795 12.5167C54.878 12.3487 54.6093 12.2704 54.2622 12.2704C53.9711 12.2704 53.7584 12.3263 53.6128 12.4495C53.4672 12.5727 53.4001 12.7182 53.4001 12.8974C53.4001 13.0205 53.4561 13.1437 53.5792 13.2444C53.6912 13.3452 53.9711 13.446 54.4077 13.5355C55.4826 13.7707 56.2551 14.0058 56.7254 14.2409C57.1956 14.476 57.5315 14.7783 57.7442 15.1254C57.957 15.4725 58.0577 15.8756 58.0577 16.3122C58.0577 16.8273 57.9122 17.2975 57.6323 17.723C57.3524 18.1596 56.9493 18.4843 56.4455 18.7082C55.9416 18.9322 55.2922 19.0441 54.5197 19.0441C53.1649 19.0441 52.2245 18.7866 51.6982 18.2604C51.1832 17.7342 50.8921 17.0736 50.8137 16.2674Z" fill="#225E63"/>
<path d="M58.6846 16.2674L61.0358 16.1219C61.0918 16.5026 61.1925 16.7937 61.3493 16.9952C61.6068 17.3199 61.9651 17.4766 62.4353 17.4766C62.7824 17.4766 63.0623 17.3983 63.2527 17.2303C63.443 17.0624 63.5438 16.872 63.5438 16.6593C63.5438 16.4578 63.4542 16.2674 63.2751 16.0995C63.0959 15.9316 62.6705 15.786 62.0099 15.6405C60.9238 15.3941 60.1625 15.0694 59.6922 14.6664C59.2332 14.2633 58.9981 13.7483 58.9981 13.1213C58.9981 12.707 59.1212 12.3263 59.3563 11.9569C59.5915 11.5874 59.9498 11.3075 60.4312 11.0947C60.9126 10.882 61.562 10.7812 62.3905 10.7812C63.4094 10.7812 64.1932 10.9716 64.7194 11.3523C65.2568 11.7329 65.5703 12.3375 65.6711 13.1661L63.3422 13.3004C63.2751 12.9421 63.1519 12.6846 62.9504 12.5167C62.7488 12.3487 62.4801 12.2704 62.133 12.2704C61.8419 12.2704 61.6292 12.3263 61.4836 12.4495C61.3381 12.5727 61.2709 12.7182 61.2709 12.8974C61.2709 13.0205 61.3269 13.1437 61.4501 13.2444C61.562 13.3452 61.8419 13.446 62.2786 13.5355C63.3534 13.7707 64.126 14.0058 64.5962 14.2409C65.0665 14.476 65.4024 14.7783 65.6151 15.1254C65.8278 15.4725 65.9286 15.8756 65.9286 16.3122C65.9286 16.8273 65.783 17.2975 65.5031 17.723C65.2232 18.1596 64.8202 18.4843 64.3163 18.7082C63.8125 18.9322 63.1631 19.0441 62.3905 19.0441C61.0358 19.0441 60.0953 18.7866 59.5691 18.2604C59.0428 17.7342 58.7517 17.0736 58.6846 16.2674Z" fill="#225E63"/>
</g>
<defs>
<clipPath id="clip0_31_2222">
<rect x="0.410645" width="63.8298" height="40" rx="4" fill="white"/>
</clipPath>
</defs>
</svg>
